Coordinates
version=1
nRows=19
nColumns=36
inDegrees=yes

Units are S.I. units (second, meters, Newtons, ...)
If the header above contains a line with 'inDegrees', this indicates whether rotational values are in degrees (yes) or radians (no).

endheader
time	pelvis_tilt	pelvis_list	pelvis_rotation	pelvis_tx	pelvis_ty	pelvis_tz	hip_flexion_r	hip_adduction_r	hip_rotation_r	knee_angle_r	knee_angle_r_beta	ankle_angle_r	subtalar_angle_r	mtp_angle_r	hip_flexion_l	hip_adduction_l	hip_rotation_l	knee_angle_l	knee_angle_l_beta	ankle_angle_l	subtalar_angle_l	mtp_angle_l	lumbar_extension	lumbar_bending	lumbar_rotation	arm_flex_r	arm_add_r	arm_rot_r	elbow_flex_r	pro_sup_r	arm_flex_l	arm_add_l	arm_rot_l	elbow_flex_l	pro_sup_l
      2.09166670	     -3.24226950	     -1.48377703	      5.85041373	     -0.97647753	      1.30410913	     -0.14751297	      7.93051240	     -4.52431806	      0.33841613	     13.44474065	      0.23465499	      9.32147125	    -10.84172024	     -7.49999987	      7.63871487	      2.96426069	      8.53404724	      9.47265013	      0.16532893	      2.44485890	     -4.11733448	     -7.49999987	    -10.64564818	      1.53529383	      5.14162436	     12.60768983	    -16.02144424	     23.86932600	    105.56538209	     93.47720474	     22.68426802	    -24.72701897	     48.25361360	    116.51041863	     80.45397034
      2.09583330	     -3.20284887	     -1.48331054	      5.67857053	     -0.97661927	      1.30374726	     -0.14748292	      7.82310260	     -4.49053972	      0.37597081	     13.31872387	      0.23245558	      9.41894024	    -10.70559166	     -7.49999987	      7.49671741	      2.94010869	      8.39667179	      9.41961671	      0.16440333	      2.41921155	     -4.17212863	     -7.49999987	    -10.64659418	      1.43746086	      5.12147198	     12.90557453	    -15.76680100	     23.76785217	    105.83305092	     96.99800092	     22.93566965	    -24.48501904	     48.04892512	    116.74675470	     82.89337821
      2.10000000	     -3.21529936	     -1.52909250	      5.50253834	     -0.97670696	      1.30021912	     -0.14735824	      7.91114709	     -4.37146978	      0.49346530	     13.38175339	      0.23355566	      9.56479321	    -10.99754039	     -7.49999987	      7.43442043	      2.89174349	      8.33842153	      9.48796259	      0.16559619	      2.71299340	     -4.24848641	     -7.49999987	    -10.74715348	      1.49796120	      5.09805260	     13.16442725	    -15.58146464	     24.13901187	    106.59729656	     96.66220026	     22.97796896	    -24.41538277	     47.81070338	    117.33445083	     82.86630487
      2.10416670	     -3.53112385	     -1.60392150	      5.44133293	     -0.97633708	      1.30376735	     -0.14748473	      8.19922329	     -4.33788648	      0.11156239	     13.32652906	      0.23259181	      9.76986188	    -10.61520899	     -7.49999987	      7.71569518	      2.80133397	      8.37020651	      9.41430150	      0.16431056	      2.87453949	     -3.96235290	     -7.49999987	    -10.14793668	      1.51981838	      5.05248634	     13.12958674	    -15.32603549	     24.57648048	    107.54356364	     94.94685941	     22.97199651	    -24.37718294	     48.05854850	    117.44351985	     82.37826838
      2.10833330	     -3.26930481	     -1.57173712	      5.28338544	     -0.97663012	      1.30421271	     -0.14734055	      7.98069583	     -4.24729893	      0.30405191	     13.38361295	      0.23358811	      9.57609187	    -11.18344971	     -7.49999987	      7.35594202	      2.81542886	      8.34846745	      9.40033589	      0.16406681	      2.92258225	     -4.23085514	     -7.49999987	    -10.94761071	      1.57956927	      5.18619842	     13.66476232	    -15.29877885	     24.53406136	    109.49575098	     98.50644021	     23.36623811	    -24.15886655	     47.70449107	    118.11304934	     83.94372181
      2.11250000	     -3.25445316	     -1.61150649	      5.24834078	     -0.97670868	      1.30405640	     -0.14730115	      7.94784180	     -4.15617734	      0.21071758	     13.37011335	      0.23335250	      9.65347060	    -11.22172778	     -7.49999987	      7.28876668	      2.77016574	      8.35189413	      9.39787422	      0.16402385	      3.01216480	     -4.24665593	     -7.49999987	    -11.00920664	      1.67199832	      5.01337943	     14.13625995	    -15.04690895	     25.30509693	    111.09502044	     98.13064487	     23.63521502	    -23.75066825	     47.60514145	    118.12177044	     83.23103451
      2.11666670	     -3.26887574	     -1.61758753	      5.20286693	     -0.97666925	      1.30414694	     -0.14729908	      7.99882367	     -4.10994178	      0.15306442	     13.41999940	      0.23422318	      9.70227258	    -11.27398182	     -7.49999987	      7.27247472	      2.77684353	      8.33834466	      9.40492706	      0.16414694	      3.14500659	     -4.24634219	     -7.49999987	    -11.17804500	      1.73357562	      4.89276870	     14.52067953	    -14.86259582	     26.33878886	    112.90980978	     96.97776358	     24.18114652	    -23.17439884	     47.53594747	    118.14919574	     81.88914694
      2.12083330	     -3.17295159	     -1.61205902	      5.09490081	     -0.97683359	      1.30404686	     -0.14723050	      7.91832158	     -4.06972213	      0.20848213	     13.42760029	      0.23435584	      9.87188138	    -11.28172575	     -7.49999987	      7.11007332	      2.77030241	      8.25734019	      9.34998797	      0.16318808	      3.23670764	     -4.15780823	     -7.49999987	    -11.38473926	      1.79552184	      4.67430254	     14.83853014	    -14.52374370	     26.85747166	    114.05483132	     96.74688351	     24.86685981	    -22.46759564	     47.33659761	    117.93773259	     81.46595909
      2.12500000	     -3.15006463	     -1.60216572	      4.87375115	     -0.97673279	      1.30403523	     -0.14709188	      7.96593123	     -4.04807109	      0.22917204	     13.42809255	      0.23436443	     10.21546653	    -10.79950138	     -7.49999987	      7.04309748	      2.76170630	      8.11001756	      9.32080110	      0.16267867	      3.33407545	     -4.13786116	     -7.49999987	    -11.39919541	      1.77629156	      4.78001390	     14.76781739	    -14.24374639	     26.74846118	    115.21523811	     99.61847855	     25.98385859	    -21.46978183	     47.41081470	    117.43630022	     82.44109320
      2.12916670	     -3.23241660	     -1.58226357	      4.65068740	     -0.97674335	      1.30362833	     -0.14683752	      8.10213121	     -4.03665561	      0.41538402	     13.44433018	      0.23464783	     10.20973012	    -10.90625618	     -7.49999987	      7.04741102	      2.74529509	      8.00652830	      9.26985467	      0.16178949	      3.37051380	     -4.07679255	     -7.49999987	    -11.26839824	      1.79286881	      4.47753023	     15.04535727	    -13.88032292	     27.29249603	    115.89258624	     98.41968658	     26.54019514	    -20.79242913	     46.90449213	    117.59410374	     81.57858419
      2.13333330	     -3.25035227	     -1.57706050	      4.52850979	     -0.97654135	      1.30366331	     -0.14668958	      8.15401206	     -4.00263117	      0.71956021	     13.40293290	      0.23392531	     10.14930823	    -11.00631580	     -7.49999987	      7.04895135	      2.77644202	      8.03369109	      9.19822530	      0.16053932	      3.26707166	     -4.36060805	     -7.49999987	    -11.27639882	      1.84814518	      4.06415080	     15.33241683	    -13.52442453	     27.75996071	    116.36912061	     98.59364030	     27.33746834	    -20.21798853	     46.47600888	    117.91902267	     80.95362190
      2.13750000	     -3.29852877	     -1.61304976	      4.47181809	     -0.97657430	      1.30354114	     -0.14669411	      8.22552960	     -3.93103390	      1.05147669	     13.32987955	      0.23265029	     10.15654807	    -11.01474757	     -7.49999987	      7.13135112	      2.78402392	      8.03428074	      9.18473923	      0.16030394	      3.26887465	     -4.54541550	     -7.49999987	    -11.33291153	      1.94394525	      3.70124819	     15.68809718	    -13.23239187	     28.13010983	    116.91898038	     98.76693039	     27.99814721	    -19.73248999	     46.14928212	    118.14863458	     80.37146139
      2.14166670	     -3.35360783	     -1.62655937	      4.27057717	     -0.97631037	      1.30035440	     -0.14631341	      8.38147910	     -3.89706813	      1.36609300	     13.43218120	      0.23443579	     10.45542993	    -10.82518326	     -7.49999987	      7.21383729	      2.78001956	      7.85702401	      9.20958410	      0.16073757	      3.34024042	     -4.64575194	     -7.49999987	    -11.28344743	      1.96158004	      3.53361379	     16.06924335	    -12.89741265	     28.58118142	    117.37456694	    102.48424251	     28.53436741	    -19.26676011	     45.59704528	    118.65014529	     82.01302123
      2.14583330	     -3.36706275	     -1.68141968	      4.17855465	     -0.97015494	      1.30037546	     -0.14204897	      8.26273861	     -3.69703795	      1.69847048	     13.36215557	      0.23321361	     10.61812540	    -10.77913796	     -7.49999987	      7.12659842	      2.61916093	      7.68295645	      9.19464723	      0.16047687	      3.42750322	     -4.67175875	     -7.49999987	    -11.02411157	      1.90401297	      3.51065254	     15.96185822	    -12.46500819	     28.94829069	    117.66935256	    102.52796414	     28.93699404	    -18.94257311	     45.41495028	    119.01601945	     82.01934585
      2.15000000	     -3.37277639	     -1.72704787	      3.96371571	     -0.97021623	      1.30395073	     -0.14221206	      8.15338227	     -3.55773009	      1.96330362	     13.28091026	      0.23179561	     10.42425979	    -10.75422809	     -7.49999987	      6.98297357	      2.43869191	      7.29402455	      9.05053577	      0.15796165	      3.47506398	     -4.46804798	     -7.49999987	    -10.93586541	      1.87492718	      3.58033004	     16.17658987	    -12.18408130	     29.65207228	    118.32955093	    100.89459945	     29.01514102	    -18.68640525	     45.25449375	    120.24573807	     80.66818945
      2.15416670	     -3.81428976	     -1.71258562	      3.78076553	     -0.96995337	      1.30319079	     -0.14218984	      8.51092755	     -3.51623267	      2.31549633	     13.12403191	      0.22905757	     10.53068006	    -10.85799618	     -7.49999987	      7.32838848	      2.40884763	      7.17972853	      8.95153043	      0.15623368	      3.52599756	     -4.48508357	     -7.49999987	    -10.03487987	      1.70686243	      3.65115529	     16.03587698	    -11.68242737	     30.05845305	    117.83378696	    100.38382530	     28.90649761	    -18.24546174	     45.24850767	    120.25740881	     79.78580417
      2.15833330	     -3.42629193	     -1.69693795	      3.88862022	     -0.97021029	      1.30371664	     -0.14218048	      7.92612171	     -3.45388795	      2.36885140	     12.92633393	      0.22560709	     10.22120724	    -10.99264257	     -7.49999987	      6.77290362	      2.35496003	      7.28924945	      8.74849192	      0.15268999	      3.27939604	     -4.69321801	     -7.49999987	    -10.85142398	      1.70900493	      3.36255090	     16.67682161	    -11.35360103	     30.53442697	    118.84654537	    100.66412319	     29.44935796	    -18.05417306	     45.02999024	    121.40243511	     79.18469521
      2.16250000	     -3.30224588	     -1.73577087	      3.84943958	     -0.97021078	      1.30037517	     -0.14198381	      7.72809646	     -3.41779107	      2.31612543	     12.83312781	      0.22398033	     10.23278604	    -11.05003139	     -7.49999987	      6.56081633	      2.23691592	      6.94573095	      8.72709717	      0.15231658	      3.58639818	     -4.15716029	     -7.49999987	    -10.89348967	      1.71188906	      3.19390801	     17.41595255	    -11.00495606	     31.01213636	    119.25878178	     99.66432318	     29.77032126	    -17.68106923	     44.73971117	    121.96818274	     78.82454989
      2.16666670	     -3.32589101	     -1.71709561	      3.81128308	     -0.97016423	      1.30070035	     -0.14198417	      7.70326347	     -3.39754421	      2.35185640	     12.79691812	      0.22334836	      9.96348878	    -11.27768866	     -7.49999987	      6.49604026	      2.23646552	      6.95314515	      8.60671566	      0.15021553	      3.41519308	     -4.29335242	     -7.49999987	    -10.64861013	      1.58477597	      3.08557504	     17.86295751	    -10.63838409	     31.18369715	    119.61003982	     99.75444043	     30.20659308	    -17.24324080	     44.69928461	    122.05939580	     78.50248857
